<?xml version="1.0" encoding="UTF-8"?>
<svg width="382px" height="84px" viewBox="0 0 382 84" version="1.1" xmlns="http://www.w3.org/2000/svg" xmlns:xlink="http://www.w3.org/1999/xlink">
    <g id="Page-1" stroke="none" stroke-width="1" fill="none" fill-rule="evenodd">
        <g id="logo_NSCR_en-01" fill-rule="nonzero">
            <path d="M57.8,51.4 C60.7,53.2 65.5,54.6 68.5,54.6 C74.3,54.6 77.6,52.4 77.6,48.4 C77.6,39.8 57,40.2 57,27 C57,18.9 63.5,13.4 73.5,13.4 C77.5,13.4 81.4,14.2 84.2,15.2 L83.5,22.6 C81.6,21.4 78,20.3 74,20.3 C68.7,20.3 65.8,22.5 65.8,25.9 C65.8,33.8 86.3,34.9 86.3,47.6 C86.3,57.4 78.3,61.6 70,61.6 C65,61.6 60.4,60.7 57.2,59.1 L57.8,51.4 Z" id="Path" fill="#B10058"></path>
            <path d="M32.7,13.4 C25.5,13.4 20.4,16.6 17.9,21.8 L17.7,21.8 L17.7,14.6 L0,14.6 L0,21.5 L9.7,21.5 L9.7,60.6 L18.2,60.6 L18.2,35.1 C18.2,29.6 19.4,26.5 21.6,24.2 C23.8,21.9 26.9,20.8 30.6,20.8 C37.1,20.8 39.6,24.9 39.6,30.8 L39.6,60.4 L48.1,60.4 L48.1,30.7 C48.1,19.2 43,13.4 32.7,13.4" id="Path" fill="#B10058"></path>
            <path d="M167.1,13.4 C166.7,13.3 166.3,13.3 165.9,13.3 C158.8,13.3 152.8,17.4 150.4,25.1 L150.2,25.1 L150.2,14.5 L149.9,14.5 L149.9,14.5 L135.4,14.5 C133.2,3.3 124.5,0 116.6,0 C103.6,0 92.1,9.8 92.1,28.3 C92.1,41 99.4,48 110.8,48 C120.4,48 127,43 130,36.1 L122.5,32.8 C121.3,37.4 117.5,40.7 111.4,40.7 C105.2,40.7 101.1,36.4 101.1,28.2 C101.1,15.8 106.3,7.2 116.4,7.2 C123,7.2 128.2,10.6 128.2,21.4 L142.2,21.4 L142.2,60.5 L150.9,60.5 L150.9,40.1 C150.9,34.3 151.7,30.9 153.3,28.2 C155.7,24.1 159.6,22.3 165.1,22.3 C165.9,22.3 166.7,22.4 167.2,22.4 L167.1,13.4 Z" id="Path" fill="#B10058"></path>
            <g id="Group" transform="translate(166.000000, 50.000000)" fill="#000000">
                <path d="M209.8,13.3 C210,13.3 210.2,13.4 210.6,13.4 C212.2,13.4 212.7,11.9 213.2,10.7 L215.7,3.9 L214.5,3.9 L212.7,9.4 L212.7,9.4 L210.9,3.9 L209.6,3.9 L211.9,10.1 C212,10.3 212.1,10.7 212.1,10.8 C212.1,10.9 211.7,12.4 210.6,12.4 C210.4,12.4 210.2,12.3 210,12.3 L209.8,13.3 Z M203.2,7.2 C203.2,6 203.7,4.7 205,4.7 C206.3,4.7 207,6 207,7.2 C207,8.3 206.4,9.7 205,9.7 C203.7,9.7 203.1,8.2 203.2,7.2 M207,10.5 L208.2,10.5 L208.2,0.7 L207,0.7 L207,4.7 L207,4.7 C206.6,4.1 206,3.6 204.8,3.6 C202.9,3.6 201.9,5.2 201.9,7 C201.9,8.8 202.7,10.6 204.8,10.6 C206,10.6 206.7,10 207.1,9.5 L207.1,9.5 L207.1,10.5 L207,10.5 Z M200.1,3.9 L198.9,3.9 L198.9,7 C198.9,8.6 198.3,9.7 196.9,9.7 C195.8,9.6 195.5,8.9 195.5,7.3 L195.5,3.9 L194.3,3.9 L194.3,7.8 C194.3,9.6 195.1,10.7 196.8,10.7 C197.7,10.7 198.6,10.2 199,9.5 L199,9.5 L199,10.6 L200.2,10.6 L200.2,3.9 L200.1,3.9 Z M192.5,3.9 L190.7,3.9 L190.7,2 L189.5,2.4 L189.5,3.9 L188,3.9 L188,4.9 L189.5,4.9 L189.5,8.8 C189.5,10.1 190.3,10.7 191.5,10.7 C191.9,10.7 192.3,10.6 192.5,10.5 L192.5,9.5 C192.3,9.6 192,9.7 191.7,9.7 C191.1,9.7 190.7,9.3 190.7,8.5 L190.7,4.9 L192.5,4.9 L192.5,3.9 Z M186.8,1.6 C186.2,1.4 185.5,1.3 184.9,1.3 C183.3,1.3 182,2.2 182,3.8 C182,6.6 185.9,6.1 185.9,8.1 C185.9,9.2 184.9,9.6 184.1,9.6 C183.4,9.6 182.7,9.3 182.2,9.2 L182.1,10.4 C182.7,10.6 183.3,10.8 184,10.8 C185.8,10.8 187.3,10 187.3,8.1 C187.3,5.1 183.4,5.5 183.4,3.8 C183.4,2.8 184.3,2.6 185,2.6 C185.7,2.6 186,2.7 186.7,3 L186.8,1.6 Z M172.1,6.5 C172.2,5.6 172.7,4.7 173.9,4.7 C175,4.7 175.6,5.5 175.6,6.5 L172.1,6.5 Z M176.3,9 C176,9.2 175.1,9.7 174.3,9.7 C173.1,9.7 172.1,8.8 172.1,7.5 L176.8,7.5 C176.8,5.4 176.1,3.7 173.9,3.7 C172,3.7 170.8,5.1 170.8,7.1 C170.8,9.3 171.9,10.7 174.2,10.7 C175.3,10.7 175.8,10.4 176.3,10.3 L176.3,9 Z M163.1,10.5 L164.3,10.5 L164.3,7.4 C164.3,5.8 164.9,4.7 166.3,4.7 C167.4,4.8 167.7,5.5 167.7,7.1 L167.7,10.5 L168.9,10.5 L168.9,6.6 C168.9,4.8 168.1,3.7 166.4,3.7 C165.5,3.7 164.7,4.1 164.3,4.8 L164.3,4.8 L164.3,0.7 L163.1,0.7 L163.1,10.5 L163.1,10.5 Z M161.5,3.9 L159.7,3.9 L159.7,2 L158.5,2.4 L158.5,3.9 L157,3.9 L157,4.9 L158.5,4.9 L158.5,8.8 C158.5,10.1 159.3,10.7 160.5,10.7 C160.9,10.7 161.3,10.6 161.5,10.5 L161.5,9.5 C161.3,9.6 161,9.7 160.7,9.7 C160.1,9.7 159.7,9.3 159.7,8.5 L159.7,4.9 L161.5,4.9 L161.5,3.9 Z M149,10.5 L150.2,10.5 L150.2,7.5 C150.2,5.8 150.9,4.8 152,4.8 C152.2,4.8 152.5,4.8 152.7,4.9 L152.7,3.8 C152.4,3.7 152.3,3.7 151.9,3.7 C151.2,3.7 150.5,4.2 150.2,4.9 L150.2,4.9 L150.2,3.9 L149,3.9 L149,10.5 Z M141.8,7.2 C141.8,5.9 142.6,4.7 143.9,4.7 C145.2,4.7 146,5.9 146,7.2 C146,8.4 145.4,9.7 143.9,9.7 C142.4,9.7 141.8,8.4 141.8,7.2 M140.5,7.2 C140.5,9.1 141.9,10.7 143.9,10.7 C145.9,10.7 147.3,9.1 147.3,7.2 C147.3,5.2 145.9,3.7 143.9,3.7 C141.8,3.7 140.5,5.2 140.5,7.2 M136.5,10.5 L137.7,10.5 L137.7,4.8 L139.5,4.8 L139.5,3.8 L137.7,3.8 L137.7,3.1 C137.7,2.2 137.8,1.5 138.9,1.5 C139.1,1.5 139.3,1.5 139.5,1.6 L139.6,0.6 C139.4,0.6 139.1,0.5 138.8,0.5 C137,0.5 136.6,1.6 136.6,3.2 L136.6,3.8 L135,3.8 L135,4.8 L136.6,4.8 L136.6,10.5 L136.5,10.5 Z M125.4,6.5 C125.5,5.6 126,4.7 127.2,4.7 C128.3,4.7 128.9,5.5 128.9,6.5 L125.4,6.5 Z M129.7,9 C129.4,9.2 128.5,9.7 127.7,9.7 C126.5,9.7 125.5,8.8 125.5,7.5 L130.2,7.5 C130.2,5.4 129.5,3.7 127.3,3.7 C125.4,3.7 124.2,5.1 124.2,7.1 C124.2,9.3 125.3,10.7 127.6,10.7 C128.7,10.7 129.2,10.4 129.7,10.3 L129.7,9 Z M122.9,3.9 L121.1,3.9 L121.1,2 L119.9,2.4 L119.9,3.9 L118.4,3.9 L118.4,4.9 L119.9,4.9 L119.9,8.8 C119.9,10.1 120.7,10.7 121.9,10.7 C122.3,10.7 122.7,10.6 122.9,10.5 L122.9,9.5 C122.7,9.6 122.4,9.7 122.1,9.7 C121.5,9.7 121.1,9.3 121.1,8.5 L121.1,4.9 L122.9,4.9 L122.9,3.9 Z M117.2,3.9 L116,3.9 L116,7 C116,8.6 115.4,9.7 114,9.7 C112.9,9.6 112.6,8.9 112.6,7.3 L112.6,3.9 L111.4,3.9 L111.4,7.8 C111.4,9.6 112.2,10.7 113.9,10.7 C114.8,10.7 115.7,10.2 116.1,9.5 L116.1,9.5 L116.1,10.6 L117.3,10.6 L117.3,3.9 L117.2,3.9 Z M109.6,3.9 L107.8,3.9 L107.8,2 L106.6,2.4 L106.6,3.9 L105.1,3.9 L105.1,4.9 L106.6,4.9 L106.6,8.8 C106.6,10.1 107.4,10.7 108.6,10.7 C109,10.7 109.4,10.6 109.6,10.5 L109.6,9.5 C109.4,9.6 109.1,9.7 108.8,9.7 C108.2,9.7 107.8,9.3 107.8,8.5 L107.8,4.9 L109.6,4.9 L109.6,3.9 Z M103.8,1 L102.4,1 L102.4,2.4 L103.8,2.4 L103.8,1 Z M102.5,10.5 L103.7,10.5 L103.7,3.9 L102.5,3.9 L102.5,10.5 Z M100.7,3.9 L98.9,3.9 L98.9,2 L97.7,2.4 L97.7,3.9 L96.2,3.9 L96.2,4.9 L97.7,4.9 L97.7,8.8 C97.7,10.1 98.5,10.7 99.7,10.7 C100.1,10.7 100.5,10.6 100.7,10.5 L100.7,9.5 C100.5,9.6 100.2,9.7 99.9,9.7 C99.3,9.7 98.9,9.3 98.9,8.5 L98.9,4.9 L100.7,4.9 L100.7,3.9 Z M91.4,10.3 C92,10.6 92.6,10.7 93.2,10.7 C94.4,10.7 95.5,10 95.5,8.6 C95.5,6.5 92.6,6.9 92.6,5.5 C92.6,5 93.1,4.7 93.8,4.7 C94.1,4.7 94.8,4.9 95.1,5 L95.2,3.9 C94.7,3.8 94.2,3.6 93.7,3.6 C92.4,3.6 91.4,4.3 91.4,5.6 C91.4,7.5 94.3,7.4 94.3,8.6 C94.3,9.3 93.6,9.6 93,9.6 C92.6,9.6 92,9.4 91.5,9.1 L91.4,10.3 Z M83.8,10.5 L85,10.5 L85,7.4 C85,5.8 85.6,4.7 87,4.7 C88.1,4.8 88.4,5.5 88.4,7.1 L88.4,10.5 L89.6,10.5 L89.6,6.6 C89.6,4.8 88.8,3.7 87.1,3.7 C86.2,3.7 85.3,4.2 84.9,4.9 L84.9,4.9 L84.9,3.8 L83.7,3.8 L83.7,10.5 L83.8,10.5 Z M80.2,10.5 L81.5,10.5 L81.5,1.4 L80.2,1.4 L80.2,10.5 Z M70.6,10.3 C71.2,10.6 71.8,10.7 72.4,10.7 C73.6,10.7 74.7,10 74.7,8.6 C74.7,6.5 71.8,6.9 71.8,5.5 C71.8,5 72.3,4.7 73,4.7 C73.3,4.7 74,4.9 74.3,5 L74.4,3.9 C73.9,3.8 73.4,3.6 72.9,3.6 C71.6,3.6 70.6,4.3 70.6,5.6 C70.6,7.5 73.5,7.4 73.5,8.6 C73.5,9.3 72.8,9.6 72.2,9.6 C71.8,9.6 71.2,9.4 70.7,9.1 L70.6,10.3 Z M63.9,7.2 C63.9,6 64.4,4.7 65.7,4.7 C67,4.7 67.7,6 67.7,7.2 C67.7,8.3 67.1,9.7 65.7,9.7 C64.4,9.7 63.9,8.2 63.9,7.2 M67.8,10.5 L69,10.5 L69,0.7 L67.8,0.7 L67.8,4.7 L67.8,4.7 C67.4,4.1 66.8,3.6 65.6,3.6 C63.7,3.6 62.7,5.2 62.7,7 C62.7,8.8 63.5,10.6 65.6,10.6 C66.8,10.6 67.5,10 67.9,9.5 L67.9,9.5 L67.9,10.5 L67.8,10.5 Z M55,10.5 L56.2,10.5 L56.2,7.4 C56.2,5.8 56.8,4.7 58.2,4.7 C59.3,4.8 59.6,5.5 59.6,7.1 L59.6,10.5 L60.8,10.5 L60.8,6.6 C60.8,4.8 60,3.7 58.3,3.7 C57.4,3.7 56.5,4.2 56.1,4.9 L56.1,4.9 L56.1,3.8 L55,3.8 L55,10.5 Z M51.5,7.9 C51.5,8.9 50.9,9.6 49.6,9.6 C49,9.6 48.4,9.2 48.4,8.5 C48.4,7.3 50,7.2 50.7,7.2 C51,7.2 51.2,7.2 51.5,7.2 L51.5,7.9 L51.5,7.9 Z M48,5.4 C48.5,5 49.2,4.7 49.9,4.7 C51.1,4.7 51.5,5.3 51.5,6.4 C51,6.4 50.7,6.4 50.2,6.4 C48.9,6.4 47.1,6.9 47.1,8.6 C47.1,10 48.1,10.7 49.5,10.7 C50.6,10.7 51.3,10.1 51.6,9.7 L51.6,9.7 L51.6,10.6 L52.7,10.6 C52.7,10.4 52.6,10.1 52.6,9.3 L52.6,6.5 C52.6,4.7 51.8,3.8 49.9,3.8 C49.1,3.8 48.3,4.1 47.7,4.4 L48,5.4 Z M44,10.5 L45.2,10.5 L45.2,0.7 L44,0.7 L44,10.5 Z M38.6,10.5 L39.8,10.5 L39.8,7.5 C39.8,5.8 40.5,4.8 41.6,4.8 C41.8,4.8 42.1,4.8 42.3,4.9 L42.3,3.8 C42,3.7 41.9,3.7 41.5,3.7 C40.8,3.7 40.1,4.2 39.8,4.9 L39.8,4.9 L39.8,3.9 L38.7,3.9 L38.7,10.5 L38.6,10.5 Z M32.1,6.5 C32.2,5.6 32.7,4.7 33.9,4.7 C35,4.7 35.6,5.5 35.6,6.5 L32.1,6.5 Z M36.4,9 C36.1,9.2 35.2,9.7 34.4,9.7 C33.2,9.7 32.2,8.8 32.2,7.5 L36.9,7.5 C36.9,5.4 36.2,3.7 34,3.7 C32.1,3.7 30.9,5.1 30.9,7.1 C30.9,9.3 32,10.7 34.3,10.7 C35.4,10.7 35.9,10.4 36.4,10.3 L36.4,9 Z M23.2,10.5 L24.4,10.5 L24.4,7.4 C24.4,5.8 25,4.7 26.4,4.7 C27.5,4.8 27.8,5.5 27.8,7.1 L27.8,10.5 L29,10.5 L29,6.6 C29,4.8 28.2,3.7 26.5,3.7 C25.6,3.7 24.8,4.1 24.4,4.8 L24.4,4.8 L24.4,0.7 L23.2,0.7 L23.2,10.5 Z M21.5,3.9 L19.7,3.9 L19.7,2 L18.5,2.4 L18.5,3.9 L17,3.9 L17,4.9 L18.5,4.9 L18.5,8.8 C18.5,10.1 19.3,10.7 20.5,10.7 C20.9,10.7 21.3,10.6 21.5,10.5 L21.5,9.5 C21.3,9.6 21,9.7 20.7,9.7 C20.1,9.7 19.7,9.3 19.7,8.5 L19.7,4.9 L21.5,4.9 L21.5,3.9 Z M11.5,6.5 C11.6,5.6 12.1,4.7 13.3,4.7 C14.4,4.7 15,5.5 15,6.5 L11.5,6.5 Z M15.7,9 C15.4,9.2 14.5,9.7 13.7,9.7 C12.5,9.7 11.5,8.8 11.5,7.5 L16.2,7.5 C16.2,5.4 15.5,3.7 13.3,3.7 C11.4,3.7 10.2,5.1 10.2,7.1 C10.2,9.3 11.3,10.7 13.6,10.7 C14.7,10.7 15.2,10.4 15.7,10.3 L15.7,9 Z M1.2,10.5 L2.5,10.5 L2.5,3 L2.5,3 L6.6,10.5 L8.3,10.5 L8.3,1.4 L7,1.4 L7,8.7 L7,8.7 L3,1.4 L1.2,1.4 L1.2,10.5 Z" id="Shape"></path>
                <path d="M192,24 L190.2,24 L190.2,22.1 L189,22.5 L189,24 L187.5,24 L187.5,25 L189,25 L189,28.9 C189,30.2 189.8,30.8 191,30.8 C191.4,30.8 191.8,30.7 192,30.6 L192,29.6 C191.8,29.7 191.5,29.8 191.2,29.8 C190.6,29.8 190.2,29.4 190.2,28.6 L190.2,25 L192,25 L192,24 Z M180.4,30.7 L181.6,30.7 L181.6,27.6 C181.6,26 182.2,24.9 183.6,24.9 C184.7,25 185,25.7 185,27.3 L185,30.7 L186.2,30.7 L186.2,26.8 C186.2,25 185.4,23.9 183.7,23.9 C182.8,23.9 181.9,24.4 181.5,25.1 L181.5,25.1 L181.5,24 L180.3,24 L180.3,30.7 L180.4,30.7 Z M173.9,26.7 C174,25.8 174.5,24.8 175.7,24.8 C176.8,24.8 177.4,25.6 177.4,26.7 L173.9,26.7 Z M178.1,29.2 C177.8,29.4 176.9,29.9 176.1,29.9 C174.9,29.9 173.9,29 173.9,27.7 L178.6,27.7 C178.6,25.6 177.9,23.9 175.7,23.9 C173.8,23.9 172.6,25.3 172.6,27.3 C172.6,29.5 173.7,30.9 176,30.9 C177.1,30.9 177.6,30.6 178.1,30.5 L178.1,29.2 Z M161.3,30.7 L162.5,30.7 L162.5,27.4 C162.5,26.2 163,24.9 164.2,24.9 C165.2,24.9 165.4,25.9 165.4,26.8 L165.4,30.8 L166.6,30.8 L166.6,27.5 C166.6,26.3 167.1,25 168.3,25 C169.3,25 169.5,26 169.5,26.9 L169.5,30.9 L170.7,30.9 L170.7,26.6 C170.7,25.2 170.1,24.1 168.4,24.1 C167.8,24.1 166.8,24.4 166.3,25.4 C165.9,24.5 165.2,24.1 164.4,24.1 C163.4,24.1 162.8,24.5 162.3,25.2 L162.3,25.2 L162.3,24.2 L161.2,24.2 L161.2,30.7 L161.3,30.7 Z M154.8,26.7 C154.9,25.8 155.4,24.8 156.6,24.8 C157.7,24.8 158.3,25.6 158.3,26.7 L154.8,26.7 Z M159,29.2 C158.7,29.4 157.8,29.9 157,29.9 C155.8,29.9 154.8,29 154.8,27.7 L159.5,27.7 C159.5,25.6 158.8,23.9 156.6,23.9 C154.7,23.9 153.5,25.3 153.5,27.3 C153.5,29.5 154.6,30.9 156.9,30.9 C158,30.9 158.5,30.6 159,30.5 L159,29.2 Z M152.3,24.1 C151.9,24 151.3,23.8 150.8,23.8 C148.8,23.8 147.4,25.3 147.4,27.3 C147.4,29.2 148.8,30.8 150.8,30.8 C151.2,30.8 151.8,30.8 152.3,30.5 L152.2,29.4 C151.8,29.6 151.3,29.8 150.9,29.8 C149.3,29.8 148.7,28.5 148.7,27.3 C148.7,26 149.5,24.8 150.8,24.8 C151.2,24.8 151.7,24.9 152.1,25.1 L152.3,24.1 Z M142.8,30.7 L144,30.7 L144,27.7 C144,26 144.7,25 145.8,25 C146,25 146.3,25 146.5,25.1 L146.5,24 C146.2,23.9 146.1,23.9 145.7,23.9 C145,23.9 144.3,24.4 144,25.1 L144,25.1 L144,24.1 L142.9,24.1 L142.9,30.7 L142.8,30.7 Z M135.6,27.3 C135.6,26 136.4,24.8 137.7,24.8 C139,24.8 139.8,26 139.8,27.3 C139.8,28.5 139.2,29.8 137.7,29.8 C136.2,29.8 135.6,28.5 135.6,27.3 M134.3,27.3 C134.3,29.2 135.7,30.8 137.7,30.8 C139.7,30.8 141.1,29.2 141.1,27.3 C141.1,25.3 139.7,23.8 137.7,23.8 C135.6,23.8 134.3,25.3 134.3,27.3 M130.3,30.7 L131.5,30.7 L131.5,25 L133.3,25 L133.3,24 L131.5,24 L131.5,23.3 C131.5,22.4 131.6,21.7 132.7,21.7 C132.9,21.7 133.1,21.7 133.3,21.8 L133.4,20.8 C133.2,20.8 132.9,20.7 132.6,20.7 C130.8,20.7 130.4,21.8 130.4,23.4 L130.4,24 L128.8,24 L128.8,25 L130.4,25 L130.4,30.7 L130.3,30.7 Z M121.4,30.7 L122.6,30.7 L122.6,27.6 C122.6,26 123.2,24.9 124.6,24.9 C125.7,25 126,25.7 126,27.3 L126,30.7 L127.2,30.7 L127.2,26.8 C127.2,25 126.4,23.9 124.7,23.9 C123.8,23.9 122.9,24.4 122.5,25.1 L122.5,25.1 L122.5,24 L121.3,24 L121.3,30.7 L121.4,30.7 Z M114.2,30.7 L119.3,30.7 L119.3,29.6 L115.5,29.6 L115.5,26.6 L119,26.6 L119,25.5 L115.5,25.5 L115.5,22.8 L119.3,22.8 L119.3,21.7 L114.2,21.7 L114.2,30.7 Z M109,24 L107.8,24 L106.2,29.5 L106.2,29.5 L104.5,24 L103,24 L101.3,29.5 L101.3,29.5 L99.8,24 L98.5,24 L100.6,30.6 L102,30.6 L103.7,25 L103.7,25 L105.4,30.6 L106.8,30.6 L109,24 Z M95.9,28.1 C95.9,29.1 95.3,29.8 94,29.8 C93.4,29.8 92.8,29.4 92.8,28.7 C92.8,27.5 94.4,27.4 95.1,27.4 C95.4,27.4 95.6,27.4 95.9,27.4 L95.9,28.1 L95.9,28.1 Z M92.3,25.5 C92.8,25.1 93.5,24.8 94.2,24.8 C95.4,24.8 95.8,25.4 95.8,26.5 C95.3,26.5 95,26.5 94.5,26.5 C93.2,26.5 91.4,27 91.4,28.7 C91.4,30.1 92.4,30.8 93.8,30.8 C94.9,30.8 95.6,30.2 95.9,29.8 L95.9,29.8 L95.9,30.7 L97,30.7 C97,30.5 96.9,30.2 96.9,29.4 L96.9,26.7 C96.9,24.9 96.1,24 94.2,24 C93.4,24 92.6,24.3 92,24.6 L92.3,25.5 Z M85.4,30.7 L90.5,30.7 L90.5,29.6 L86.7,29.6 L86.7,21.7 L85.4,21.7 L85.4,30.7 L85.4,30.7 Z M74.3,27.3 C74.3,26.1 74.8,24.8 76.1,24.8 C77.4,24.8 78.1,26.1 78.1,27.3 C78.1,28.4 77.5,29.8 76.1,29.8 C74.8,29.8 74.3,28.3 74.3,27.3 M78.2,30.7 L79.4,30.7 L79.4,20.9 L78.2,20.9 L78.2,24.9 L78.2,24.9 C77.8,24.3 77.2,23.8 76,23.8 C74.1,23.8 73.1,25.4 73.1,27.2 C73.1,29 73.9,30.8 76,30.8 C77.2,30.8 77.9,30.2 78.3,29.7 L78.3,29.7 L78.3,30.7 L78.2,30.7 Z M65.4,30.7 L66.6,30.7 L66.6,27.6 C66.6,26 67.2,24.9 68.6,24.9 C69.7,25 70,25.7 70,27.3 L70,30.7 L71.2,30.7 L71.2,26.8 C71.2,25 70.4,23.9 68.7,23.9 C67.8,23.9 66.9,24.4 66.5,25.1 L66.5,25.1 L66.5,24 L65.3,24 L65.3,30.7 L65.4,30.7 Z M61.9,28.1 C61.9,29.1 61.3,29.8 60,29.8 C59.4,29.8 58.8,29.4 58.8,28.7 C58.8,27.5 60.4,27.4 61.1,27.4 C61.4,27.4 61.6,27.4 61.9,27.4 L61.9,28.1 L61.9,28.1 Z M58.4,25.5 C58.9,25.1 59.6,24.8 60.3,24.8 C61.5,24.8 61.9,25.4 61.9,26.5 C61.4,26.5 61.1,26.5 60.6,26.5 C59.3,26.5 57.5,27 57.5,28.7 C57.5,30.1 58.5,30.8 59.9,30.8 C61,30.8 61.7,30.2 62,29.8 L62,29.8 L62,30.7 L63.1,30.7 C63.1,30.5 63,30.2 63,29.4 L63,26.7 C63,24.9 62.2,24 60.3,24 C59.5,24 58.7,24.3 58.1,24.6 L58.4,25.5 Z M47.7,26.7 C47.8,25.8 48.3,24.8 49.5,24.8 C50.6,24.8 51.2,25.6 51.2,26.7 L47.7,26.7 Z M52,29.2 C51.7,29.4 50.8,29.9 50,29.9 C48.8,29.9 47.8,29 47.8,27.7 L52.5,27.7 C52.5,25.6 51.8,23.9 49.6,23.9 C47.7,23.9 46.5,25.3 46.5,27.3 C46.5,29.5 47.6,30.9 49.9,30.9 C51,30.9 51.5,30.6 52,30.5 L52,29.2 Z M35.1,30.7 L36.3,30.7 L36.3,27.4 C36.3,26.2 36.8,24.9 38,24.9 C39,24.9 39.2,25.9 39.2,26.8 L39.2,30.8 L40.4,30.8 L40.4,27.5 C40.4,26.3 40.9,25 42.1,25 C43.1,25 43.3,26 43.3,26.9 L43.3,30.9 L44.5,30.9 L44.5,26.6 C44.5,25.2 43.9,24.1 42.2,24.1 C41.6,24.1 40.6,24.4 40.1,25.4 C39.7,24.5 39,24.1 38.2,24.1 C37.2,24.1 36.6,24.5 36.1,25.2 L36.1,25.2 L36.1,24.2 L35,24.2 L35,30.7 L35.1,30.7 Z M32.9,21.1 L31.5,21.1 L31.5,22.5 L32.9,22.5 L32.9,21.1 Z M31.5,30.7 L32.7,30.7 L32.7,24 L31.5,24 L31.5,30.7 Z M26.2,30.7 L27.4,30.7 L27.4,27.7 C27.4,26 28.1,25 29.2,25 C29.4,25 29.7,25 29.9,25.1 L29.9,24 C29.6,23.9 29.5,23.9 29.1,23.9 C28.4,23.9 27.7,24.4 27.4,25.1 L27.4,25.1 L27.4,24.1 L26.3,24.1 L26.3,30.7 L26.2,30.7 Z M24.6,21.8 C23.9,21.5 23.3,21.4 22.6,21.4 C19.8,21.4 17.8,23.3 17.8,26.1 C17.8,29 19.7,30.8 22.6,30.8 C23.1,30.8 24,30.8 24.7,30.5 L24.6,29.2 C24.1,29.5 23.3,29.6 22.6,29.6 C20.7,29.6 19.2,28.2 19.2,26 C19.2,24 20.6,22.4 22.7,22.4 C23.4,22.4 24,22.6 24.6,22.9 L24.6,21.8 Z M9.9,30.7 L11.1,30.7 L11.1,25 L12.9,25 L12.9,24 L11.1,24 L11.1,23.3 C11.1,22.4 11.2,21.7 12.3,21.7 C12.5,21.7 12.7,21.7 12.9,21.8 L13,20.8 C12.8,20.8 12.5,20.7 12.2,20.7 C10.4,20.7 10,21.8 10,23.4 L10,24 L8.4,24 L8.4,25 L10,25 L10,30.7 L9.9,30.7 Z M1.9,27.3 C1.9,26 2.7,24.8 4,24.8 C5.3,24.8 6.1,26 6.1,27.3 C6.1,28.5 5.5,29.8 4,29.8 C2.6,29.8 1.9,28.5 1.9,27.3 M0.6,27.3 C0.6,29.2 2,30.8 4,30.8 C6,30.8 7.4,29.2 7.4,27.3 C7.4,25.3 6,23.8 4,23.8 C2,23.8 0.6,25.3 0.6,27.3" id="Shape"></path>
            </g>
        </g>
    </g>
</svg>
